<svg xmlns="http://www.w3.org/2000/svg" width="24.012" height="30" viewBox="0 0 24.012 30">
    <g id="prefix__bag" transform="translate(-48.8)">
        <path id="prefix__Path_1" fill="#fff" d="M72.806 25.933L71.088 6.589a.827.827 0 0 0-.822-.755h-3.533a5.927 5.927 0 0 0-11.853 0h-3.534a.822.822 0 0 0-.822.755l-1.718 19.344c0 .025-.006.049-.006.074A4.275 4.275 0 0 0 53.3 30h15.009a4.275 4.275 0 0 0 4.5-3.994.3.3 0 0 0-.003-.073zm-12-24.276a4.274 4.274 0 0 1 4.27 4.178h-8.54a4.274 4.274 0 0 1 4.27-4.179zm7.5 26.687H53.3a2.643 2.643 0 0 1-2.847-2.3L52.1 7.5h2.773v2.515a.828.828 0 0 0 1.656 0V7.5h8.546v2.515a.828.828 0 0 0 1.656 0V7.5h2.773l1.65 18.546a2.647 2.647 0 0 1-2.845 2.298z" data-name="Path 1"/>
    </g>
</svg>
