<svg xmlns="http://www.w3.org/2000/svg" width="24" height="21.1" viewBox="0 0 24 21.1">
    <g id="prefix__heart" transform="translate(0 -28.501)">
        <path id="prefix__Path_38" fill="#fff" d="M22.062 30.46a6.645 6.645 0 0 0-9.4.005l-.656.656-.667-.667a6.639 6.639 0 0 0-9.4-.01 6.639 6.639 0 0 0 .01 9.4l9.56 9.556a.682.682 0 0 0 .967.005l9.576-9.54a6.658 6.658 0 0 0 .01-9.4zm-.977 8.431l-9.092 9.057-9.072-9.073a5.267 5.267 0 1 1 7.449-7.449l1.15 1.15a.685.685 0 0 0 .972 0l1.14-1.14a5.271 5.271 0 0 1 7.454 7.454z" data-name="Path 38"/>
    </g>
</svg>
