<svg xmlns="http://www.w3.org/2000/svg" width="30" height="25.841" viewBox="0 0 30 25.841">
    <g id="prefix__send" transform="translate(0 -33.985)">
        <path id="prefix__Path_26" fill="#22aea5" d="M0 46.909a1.454 1.454 0 0 0 1.04 1.316l10.99 3.323.4 7.575a.751.751 0 0 0 .508.661.688.688 0 0 0 .245.043.743.743 0 0 0 .563-.251l3.886-4.3 5.507 3.812a1.445 1.445 0 0 0 .832.263 1.477 1.477 0 0 0 1.438-1.175l4.571-23.295a.748.748 0 0 0-1.016-.838L.884 45.471A1.477 1.477 0 0 0 0 46.909zm13.831 10.335l-.251-4.779 2.82 1.945zm10.121.581l-10.023-6.939 14.055-13.6zm2.49-21.135l-13.9 13.443-10.973-3.316z" data-name="Path 26"/>
    </g>
</svg>
