<svg xmlns="http://www.w3.org/2000/svg" id="prefix___360-degree" width="174.009" height="129.066" data-name="360-degree" viewBox="0 0 174.009 129.066">
    <defs>
        <style>
            .prefix__cls-1{fill:#fff}
        </style>
    </defs>
    <path id="prefix__Path_32" d="M312.393 209.043a5.1 5.1 0 0 1-.638-10.155c16.109-2.052 30.534-6.418 40.619-12.294 9.222-5.373 14.3-11.689 14.3-17.785 0-6.719-5.942-12.216-10.929-15.647a5.1 5.1 0 0 1 5.779-8.4c10.039 6.906 15.346 15.221 15.346 24.048 0 10.018-6.7 19.214-19.363 26.594-11.4 6.643-26.777 11.346-44.464 13.6a5.41 5.41 0 0 1-.651.04zm0 0" class="prefix__cls-1" data-name="Path 32" transform="translate(-202.861 -94.971)"/>
    <path id="prefix__Path_33" d="M85.762 197.664L72.168 184.07a5.1 5.1 0 0 0-7.21 7.209l3.972 3.972c-15.23-1.573-29.066-5.119-39.78-10.272-12.05-5.792-18.95-13.172-18.95-20.245 0-6 4.947-12.235 13.928-17.559a5.1 5.1 0 1 0-5.2-8.771C3.283 147.676 0 157.84 0 164.734c0 11.311 8.783 21.764 24.732 29.435 12.378 5.952 28.39 9.938 45.835 11.481l-5.609 5.609a5.1 5.1 0 0 0 7.21 7.21l13.594-13.595a5.1 5.1 0 0 0 0-7.21zm0 0" class="prefix__cls-1" data-name="Path 33" transform="translate(0 -90.895)"/>
    <path id="prefix__Path_34" d="M115.079 123.13v-1.23c0-4.327-2.649-5.166-6.2-5.166-2.2 0-2.906-1.937-2.906-3.874s.71-3.875 2.906-3.875c2.453 0 5.037-.323 5.037-5.553 0-3.745-2.131-4.649-4.779-4.649-3.164 0-4.778.775-4.778 3.294 0 2.194-.969 3.68-4.714 3.68-4.649 0-5.229-.969-5.229-4.069 0-5.036 3.615-11.558 14.722-11.558 8.2 0 14.4 2.97 14.4 11.688 0 4.713-1.743 9.1-4.972 10.59a9.36 9.36 0 0 1 6.586 9.492v1.227c0 10.59-7.3 14.594-16.337 14.594-11.107 0-15.368-6.78-15.368-12.2 0-2.906 1.227-3.681 4.778-3.681 4.133 0 5.166.9 5.166 3.359 0 3.035 2.842 3.745 5.747 3.745 4.392 0 5.942-1.614 5.942-5.812zm0 0" class="prefix__cls-1" data-name="Path 34" transform="translate(-61.687 -59.5)"/>
    <path id="prefix__Path_35" d="M240.48 121.9v.582c0 11.107-6.91 15.239-15.821 15.239s-15.886-4.133-15.886-15.239v-17.11c0-11.107 7.168-15.239 16.467-15.239 10.913 0 15.239 6.78 15.239 12.139 0 3.1-1.486 4.068-4.714 4.068-2.776 0-5.231-.71-5.231-3.68 0-2.453-2.582-3.745-5.617-3.745-3.81 0-6.071 2-6.071 6.457v5.811c2.067-2.26 4.973-2.841 8.073-2.841 7.36 0 13.56 3.229 13.56 13.561zm-21.633 1.292c0 4.455 2.2 6.392 5.812 6.392s5.747-1.937 5.747-6.392v-.582c0-4.714-2.131-6.522-5.812-6.522-3.486 0-5.747 1.679-5.747 5.941zm0 0" class="prefix__cls-1" data-name="Path 35" transform="translate(-137.819 -59.5)"/>
    <path id="prefix__Path_36" d="M325.055 122.484v-17.112c0-11.107 6.909-15.239 15.821-15.239s15.885 4.133 15.885 15.239v17.113c0 11.107-6.974 15.239-15.885 15.239s-15.821-4.133-15.821-15.24zm21.632-17.113c0-4.455-2.194-6.457-5.811-6.457s-5.747 2-5.747 6.457v17.113c0 4.455 2.131 6.457 5.747 6.457s5.811-2 5.811-6.457zm0 0" class="prefix__cls-1" data-name="Path 36" transform="translate(-214.581 -59.5)"/>
    <path id="prefix__Path_37" d="M424.646 30.587a15.294 15.294 0 1 1 15.294-15.293 15.311 15.311 0 0 1-15.294 15.293zm0-20.392a5.1 5.1 0 1 0 5.1 5.1 5.1 5.1 0 0 0-5.1-5.095zm0 0" class="prefix__cls-1" data-name="Path 37" transform="translate(-270.229)"/>
</svg>
