<svg xmlns="http://www.w3.org/2000/svg" width="17.027" height="30" viewBox="0 0 17.027 30">
    <path id="prefix__facebook" fill="#c6c6c6" d="M11.018 30h-4.8a1.457 1.457 0 0 1-1.455-1.455V17.708h-2.8A1.457 1.457 0 0 1 .5 16.253V11.61a1.457 1.457 0 0 1 1.455-1.455h2.8V7.829a7.917 7.917 0 0 1 2.097-5.672A7.54 7.54 0 0 1 12.411 0l3.664.006a1.457 1.457 0 0 1 1.453 1.455v4.311a1.457 1.457 0 0 1-1.455 1.455h-2.467c-.752 0-.944.151-.985.2-.068.077-.148.293-.148.892v1.837h3.414a1.479 1.479 0 0 1 .72.183 1.46 1.46 0 0 1 .749 1.273v4.643a1.457 1.457 0 0 1-1.456 1.453h-3.427v10.836A1.457 1.457 0 0 1 11.018 30zm-4.5-1.759h4.2v-11.32a.973.973 0 0 1 .972-.972h3.91v-4.036h-3.914a.973.973 0 0 1-.971-.972V8.317a3 3 0 0 1 .585-2.056 2.981 2.981 0 0 1 2.3-.792h2.163v-3.7l-3.353-.011c-3.634 0-5.893 2.326-5.893 6.071v3.112a.973.973 0 0 1-.971.972H2.259v4.036h3.287a.973.973 0 0 1 .971.972zm9.553-26.477zm0 0" transform="translate(-.5)"/>
</svg>
