<svg xmlns="http://www.w3.org/2000/svg" width="25.518" height="30" viewBox="0 0 25.518 30">
    <defs>
        <style>
            .prefix__cls-1{fill:#fff}
        </style>
    </defs>
    <g id="prefix__user_1_" data-name="user (1)" transform="translate(-36.073)">
        <g id="prefix__Group_1" data-name="Group 1" transform="translate(36.073)">
            <path id="prefix__Path_2" d="M143.457 16.165h.2a5.733 5.733 0 0 0 4.38-1.895c2.392-2.7 1.994-7.318 1.951-7.759-.155-3.311-1.721-4.9-3.013-5.635A6.907 6.907 0 0 0 143.631 0h-.106a6.918 6.918 0 0 0-3.342.851c-1.3.739-2.9 2.323-3.05 5.66-.043.441-.441 5.063 1.951 7.759a5.71 5.71 0 0 0 4.373 1.895zm-4.666-9.5c0-.019.006-.037.006-.05.205-4.454 3.367-4.933 4.721-4.933h.075c1.677.037 4.529.721 4.721 4.933a.121.121 0 0 0 .006.05c.006.043.441 4.268-1.534 6.492a4.072 4.072 0 0 1-3.2 1.329h-.062a4.059 4.059 0 0 1-3.193-1.329c-1.968-2.211-1.546-6.457-1.54-6.491z" class="prefix__cls-1" data-name="Path 2" transform="translate(-130.806)"/>
            <path id="prefix__Path_3" d="M61.589 266.97v-.019c0-.05-.006-.1-.006-.155-.037-1.23-.118-4.106-2.814-5.026l-.062-.019a17.927 17.927 0 0 1-5.157-2.351.838.838 0 1 0-.963 1.373 19.348 19.348 0 0 0 5.672 2.591c1.448.516 1.609 2.063 1.653 3.479a1.248 1.248 0 0 0 .006.155 11.277 11.277 0 0 1-.13 1.92 22.864 22.864 0 0 1-10.953 2.547 23 23 0 0 1-10.959-2.553 10.675 10.675 0 0 1-.13-1.92c0-.05.006-.1.006-.155.043-1.417.205-2.963 1.653-3.479a19.532 19.532 0 0 0 5.672-2.591.838.838 0 0 0-.963-1.373 17.729 17.729 0 0 1-5.156 2.348c-.025.006-.043.012-.062.019-2.7.926-2.777 3.8-2.814 5.026a1.25 1.25 0 0 1-.006.155v.019a9.526 9.526 0 0 0 .317 2.814.8.8 0 0 0 .323.391c.186.124 4.653 2.97 12.127 2.97s11.94-2.852 12.127-2.97a.831.831 0 0 0 .323-.391 9.995 9.995 0 0 0 .296-2.805z" class="prefix__cls-1" data-name="Path 3" transform="translate(-36.073 -243.139)"/>
        </g>
    </g>
</svg>
